<svg width="23" height="19" viewBox="0 0 23 19" fill="none" xmlns="http://www.w3.org/2000/svg">
<path d="M11.5 0C5.15897 0 0 4.26175 0 9.5C0 14.7382 5.15897 19 11.5 19C17.841 19 23 14.7382 23 9.5C23 4.26175 17.841 0 11.5 0ZM17.485 6.31613L10.0542 13.6238C9.9727 13.704 9.87127 13.7688 9.7568 13.8138C9.64233 13.8588 9.5175 13.883 9.39075 13.8846H9.37582C9.25183 13.8846 9.12923 13.863 9.01598 13.8213C8.90273 13.7796 8.80136 13.7187 8.71844 13.6425L5.53382 10.7195C5.45294 10.6486 5.39003 10.5651 5.34878 10.4739C5.30752 10.3826 5.28876 10.2855 5.2936 10.1882C5.29843 10.0909 5.32677 9.99535 5.37693 9.90721C5.4271 9.81908 5.49809 9.74011 5.58572 9.67496C5.67336 9.60981 5.77587 9.55979 5.88725 9.52784C5.99862 9.49589 6.1166 9.48265 6.23425 9.4889C6.35191 9.49515 6.46686 9.52077 6.57236 9.56424C6.67786 9.60772 6.77177 9.66818 6.84858 9.74207L9.3526 12.0403L16.1304 5.37618C16.2824 5.23097 16.4975 5.14102 16.7292 5.12577C16.9609 5.11052 17.1905 5.1712 17.3685 5.29468C17.5464 5.41816 17.6584 5.59454 17.6802 5.78567C17.702 5.97681 17.6319 6.16736 17.485 6.31613Z" fill="#FFF8F8"/>
</svg>
